<?xml version="1.0" encoding="utf-8"?>
<svg version="1.1" width="512" height="512" xmlns="http://www.w3.org/2000/svg">
  <path d="M0 0 C103.95 0 207.9 0 315 0 C315.08 107.42 315.08 107.42 315.1 152.27 C315.1 162.53 315.11 172.79 315.11 183.06 C315.11 184.34 315.11 185.63 315.11 186.95 C315.12 207.72 315.14 228.49 315.15 249.25 C315.17 270.56 315.18 291.87 315.19 313.19 C315.19 326.34 315.2 339.49 315.22 352.64 C315.23 361.65 315.23 370.67 315.23 379.69 C315.23 384.89 315.23 390.1 315.24 395.3 C315.25 400.07 315.25 404.83 315.24 409.6 C315.24 411.32 315.24 413.04 315.25 414.76 C315.31 431.69 314.35 444.54 302.64 457.64 C292.14 467.74 281.28 470.16 267.15 470.13 C266.17 470.14 265.19 470.14 264.19 470.14 C260.93 470.15 257.67 470.15 254.41 470.15 C252.07 470.15 249.73 470.15 247.39 470.16 C241.03 470.16 234.68 470.17 228.33 470.17 C223.69 470.17 219.05 470.17 214.42 470.17 C201.94 470.18 189.47 470.19 177 470.19 C176.29 470.19 175.58 470.19 174.85 470.19 C173.79 470.19 173.79 470.19 172.71 470.19 C161.23 470.18 149.75 470.19 138.26 470.21 C126.46 470.22 114.66 470.23 102.86 470.23 C96.24 470.23 89.62 470.23 83 470.24 C76.77 470.25 70.55 470.25 64.32 470.24 C62.04 470.24 59.75 470.25 57.47 470.25 C54.35 470.26 51.23 470.25 48.11 470.25 C47.21 470.25 46.31 470.26 45.38 470.26 C31.78 470.19 21.18 465.86 11.26 456.45 C0.41 444.69 -0.44 431.55 -0.36 416.32 C-0.36 414.52 -0.36 412.72 -0.37 410.92 C-0.38 406 -0.36 401.07 -0.35 396.15 C-0.34 390.83 -0.34 385.51 -0.34 380.19 C-0.34 370.98 -0.33 361.78 -0.32 352.57 C-0.29 339.25 -0.28 325.94 -0.28 312.63 C-0.27 291.02 -0.25 269.42 -0.23 247.82 C-0.2 226.84 -0.18 205.86 -0.16 184.88 C-0.16 183.57 -0.16 182.26 -0.16 180.92 C-0.16 170.69 -0.15 160.47 -0.14 150.25 C-0.12 100.17 -0.06 50.08 0 0 Z " fill="#FF3300" transform="translate(98,20)"/>
  <path d="M 0 0 C 0.92 -0.01 1.84 -0.01 2.79 -0.02 C 5.85 -0.03 8.9 -0.01 11.96 0.01 C 14.07 0.01 16.19 0 18.31 0 C 22.75 0 27.19 0.01 31.64 0.04 C 37.34 0.06 43.04 0.06 48.74 0.05 C 53.11 0.04 57.49 0.05 61.86 0.06 C 63.96 0.07 66.07 0.07 68.17 0.06 C 71.1 0.06 74.04 0.08 76.97 0.1 C 77.85 0.09 78.72 0.09 79.62 0.08 C 85.55 0.16 85.55 0.16 87.67 1.84 C 90.51 5.43 90.14 9.21 90.2 13.61 C 90.22 15.07 90.25 16.53 90.28 17.99 C 90.29 18.76 90.3 19.53 90.32 20.32 C 90.6 35.53 91.49 50.46 93.99 65.5 C 94.31 67.45 94.31 67.45 94.64 69.44 C 97.8 85.86 103.67 102.53 112.99 116.5 C 112.81 119.55 112.32 121.09 110.38 123.46 C 101.12 131.48 86.34 143.14 73.39 143.59 C 67.21 140.79 64.5 132.82 62.05 126.88 C 61.71 126.05 61.37 125.23 61.02 124.39 C 55.41 110.47 51.82 96.1 49.28 81.34 C 48.55 77.16 47.8 73.38 45.99 69.5 C 44.67 69.5 43.35 69.5 41.99 69.5 C 40.1 75.48 38.26 81.47 36.6 87.51 C 27.02 122.24 10.08 150.21 -15.2 175.88 C -15.93 176.63 -15.93 176.63 -16.68 177.39 C -19.86 180.59 -23.09 183.25 -27.01 185.5 C -30.29 184.74 -32.278 183.604 -35.01 181.5 C -36.829 179.795 -36.209 180.48 -38.01 178.5 C -39.902 176.419 -41.62 174.34 -43.33 172.13 C -43.81 171.5 -44.3 170.87 -44.8 170.22 C -55.1 156.66 -55.1 156.66 -54.93 150.59 C -53.82 146.85 -51.93 144.17 -49.58 141.13 C -35.17 121.68 -23.58 100.39 -17.26 76.94 C -17.06 76.21 -16.87 75.48 -16.66 74.73 C -12.45 58.27 -12.65 41.83 -12.56 24.97 C -12.54 21.69 -12.5 18.4 -12.46 15.12 C -12.45 14.11 -12.45 13.1 -12.45 12.07 C -12.44 11.13 -12.43 10.2 -12.41 9.23 C -12.41 8 -12.41 8 -12.4 6.75 C -11.16 -0.47 -6.31 -0.07 0 0 Z" fill="#FFFDFD" transform="translate(221.013671875,167.498291015625)"/>
  <path d="M0 0 C2.01 1.48 3.92 3.02 5.81 4.64 C6.36 5.08 6.9 5.51 7.46 5.96 C10.8 8.66 13.79 11.61 16.81 14.64 C20.18 16.88 21.13 16.85 25.04 16.73 C26.07 16.71 27.1 16.69 28.17 16.67 C30.32 16.61 32.48 16.54 34.64 16.47 C45.15 16.29 53.01 18.39 60.81 25.64 C66.07 31.34 68.84 38.35 69.25 46.08 C68.91 54.13 65.37 61.07 59.84 66.81 C52.44 73.5 46.49 75.53 36.43 75.1 C28.71 74.12 22.58 70.76 16.11 66.59 C10.37 64.21 5.23 65.93 -0.31 68.08 C-10.84 72.12 -21.68 73.81 -32.5 69.58 C-43.11 64.56 -50.58 57.81 -54.61 46.73 C-57.61 35.89 -57.37 24.71 -52.19 14.64 C-46.25 4.9 -38.11 -0.39 -27.3 -3.67 C-18.07 -5.72 -8.16 -5.07 0 0 Z " fill="#FFFDFD" transform="translate(252.1875,74.359375)"/>
  <path d="M0 0 C4.62 0 9.24 0 14 0 C14.33 6.6 14.66 13.2 15 20 C16.65 18.68 18.3 17.36 20 16 C23.7 14.15 27.96 14.66 32 15 C37.18 16.76 39.9 19.53 43 24 C46.17 31.84 45.93 40.1 42.98 47.96 C40.77 52.55 37.83 56.1 33 58 C28.06 58.57 23.5 58.67 18.94 56.62 C17 55 17 55 15 53 C14.67 54.32 14.34 55.64 14 57 C9.38 57 4.76 57 0 57 C0 38.19 0 19.38 0 0 Z " fill="#FFF8F7" transform="translate(226,385)"/>
  <path d="M0 0 C3.58 3.3 5.82 6.64 8 11 C8 14.63 8 18.26 8 22 C-1.9 22 -11.8 22 -22 22 C-20.73 27.73 -20.73 27.73 -18.17 29.36 C-11.56 31.32 -5.2 30.12 1.09 27.66 C3 27 3 27 6 27 C6 30.3 6 33.6 6 37 C-0.06 39.69 -5.51 40.35 -12.06 40.44 C-12.82 40.46 -13.57 40.48 -14.35 40.5 C-20.55 40.48 -25.9 38.86 -30.53 34.59 C-35.85 28.55 -36.46 23.01 -36.3 15.23 C-35.78 9.67 -34.17 6.07 -30.13 2.22 C-21.99 -4.3 -9.14 -5.72 0 0 Z " fill="#FFFBFA" transform="translate(334,403)"/>
  <path d="M0 0 C4.29 0 8.58 0 13 0 C13 3.96 13 7.92 13 12 C17.62 12 22.24 12 27 12 C27 15.3 27 18.6 27 22 C22.38 22 17.76 22 13 22 C13.33 28.6 13.66 35.2 14 42 C16.3 43.15 18.08 43.31 20.62 43.56 C22.07 43.71 23.51 43.85 25 44 C25 46.97 25 49.94 25 53 C22.1 53.08 19.21 53.14 16.31 53.19 C15.09 53.23 15.09 53.23 13.84 53.26 C9.09 53.32 5.78 53.22 2 50 C-0.07 46.74 -0.24 44.18 -0.2 40.36 C-0.19 39.29 -0.18 38.22 -0.18 37.12 C-0.16 36.01 -0.14 34.89 -0.12 33.75 C-0.12 32.62 -0.11 31.5 -0.1 30.34 C-0.07 27.56 -0.04 24.78 0 22 C-2.31 22 -4.62 22 -7 22 C-7 18.7 -7 15.4 -7 12 C-4.69 12 -2.38 12 0 12 C0 8.04 0 4.08 0 0 Z " fill="#FFFBFB" transform="translate(136,389)"/>
  <path d="M0 0 C4.62 0 9.24 0 14 0 C14 18.81 14 37.62 14 57 C9.38 57 4.76 57 0 57 C0 38.19 0 19.38 0 0 Z " fill="#FFF6F4" transform="translate(277,385)"/>
  <path d="M0 0 C1.89 0.03 1.89 0.03 3.81 0.06 C3.81 4.02 3.81 7.98 3.81 12.06 C-0.24 11.82 -0.24 11.82 -4.29 11.57 C-7.31 11.9 -7.31 11.9 -10 13.78 C-13.39 18.87 -12.97 23.89 -13 29.88 C-13.03 31.04 -13.05 32.21 -13.08 33.42 C-13.13 36.3 -13.16 39.18 -13.19 42.06 C-17.81 42.06 -22.43 42.06 -27.19 42.06 C-27.19 28.53 -27.19 15 -27.19 1.06 C-22.57 1.06 -17.95 1.06 -13.19 1.06 C-12.86 2.38 -12.53 3.7 -12.19 5.06 C-11.42 4.42 -10.66 3.78 -9.88 3.12 C-6.49 0.53 -4.15 -0.07 0 0 Z " fill="#FFFAF9" transform="translate(376.1875,399.9375)"/>
  <path d="M0 0 C0 3.96 0 7.92 0 12 C-1.71 11.92 -3.42 11.83 -5.19 11.75 C-9.05 11.75 -10.7 11.83 -14.12 13.75 C-17.08 17.3 -17.13 20.68 -17.32 25.2 C-17.36 26.18 -17.4 27.16 -17.44 28.17 C-17.5 29.7 -17.5 29.7 -17.56 31.25 C-17.61 32.28 -17.65 33.31 -17.69 34.38 C-17.8 36.92 -17.9 39.46 -18 42 C-22.29 42 -26.58 42 -31 42 C-31 28.47 -31 14.94 -31 1 C-26.71 1 -22.42 1 -18 1 C-17.67 2.65 -17.34 4.3 -17 6 C-16.26 5.2 -15.51 4.39 -14.75 3.56 C-10.1 -0.77 -6.11 -0.1 0 0 Z " fill="#FFFCFC" transform="translate(200,400)"/>
  <path d="M0 0 C4.62 0 9.24 0 14 0 C14 13.53 14 27.06 14 41 C9.38 41 4.76 41 0 41 C0 27.47 0 13.94 0 0 Z " fill="#FFF8F7" transform="translate(206,401)"/>
  <path d="M0 0 C3.19 1.76 3.83 2.5 5 6 C5.91 17.31 5.91 17.31 2 22 C1 23 1 23 -2.81 23.31 C-5.95 23.27 -6.8 23.15 -9.44 21.25 C-12.4 16.99 -12.27 13.14 -12 8 C-10.22 0.75 -7.35 -0.64 0 0 Z " fill="#FF3202" transform="translate(252,410)"/>
  <path d="M0 0 C4.62 0 9.24 0 14 0 C14 3.63 14 7.26 14 11 C9.38 11 4.76 11 0 11 C0 7.37 0 3.74 0 0 Z " fill="#FFF4F2" transform="translate(206,385)"/>
  <path d="M0 0 C2.44 1.75 2.44 1.75 4 4 C4 5.32 4 6.64 4 8 C-1.28 8 -6.56 8 -12 8 C-11 3 -11 3 -9.38 1.19 C-6.03 -0.49 -3.69 -0.46 0 0 Z " fill="#FF3306" transform="translate(324,409)"/>
</svg>